{"title":"Love.Actually.DVDRip.x264.AC3-UnKn0wn","uid":8273394,"size":2113602024,"categoryP":"video","categoryS":"movies","magnet":"?xt=urn:btih:3eefd0f411bc2303386239f921bea803b5f0e380&amp;dn=Love.Actually.DVDRip.x264.AC3-UnKn0wn&amp;tr=udp%3A%2F%2Ftracker.openbittorrent.com%3A80&amp;tr=udp%3A%2F%2Fopen.demonii.com%3A1337&amp;tr=udp%3A%2F%2Ftracker.coppersurfer.tk%3A6969&amp;tr=udp%3A%2F%2Fexodus.desync.com%3A6969","seeders":1,"leechers":0,"uploader":"tipp1212","files":44,"time":1363654611,"description":"General \nFormat : Matroska \nFormat version : Version 2 \nFile size : 1.95 GiB \nDuration : 2h 14mn \nOverall bit rate : 2 074 Kbps \nMovie name : LOVE_ACTUALLY.Title1.DVDRip \nEncoded date : UTC 2013-03-18 03:13:44 \nWriting application : DVDFab \nWriting library : libebml v0.7.8 + libmatroska v0.8.1 \n\nVideo \nID : 1 \nFormat : AVC \nFormat/Info : Advanced Video Codec \nFormat profile : &lt;a class=&quot;__cf_email__&quot; href=&quot;/cdn-cgi/l/email-protection&quot; data-cfemail=&quot;94d9f5fdfad4d8a7baa4&quot;&gt;[email&amp;#160;protected]&lt;/a&gt;&lt;script cf-hash='f9e31' type=&quot;text/javascript&quot;&gt;\n/* &lt;![CDATA[ */!function(){try{var t=&quot;currentScript&quot;in document?document.currentScript:function(){for(var t=document.getElementsByTagName(&quot;script&quot;),e=t.length;e--;)if(t[e].getAttribute(&quot;cf-hash&quot;))return t[e]}();if(t&amp;&amp;t.previousSibling){var e,r,n,i,c=t.previousSibling,a=c.getAttribute(&quot;data-cfemail&quot;);if(a){for(e=&quot;&quot;,r=parseInt(a.substr(0,2),16),n=2;a.length-n;n+=2)i=parseInt(a.substr(n,2),16)^r,e+=String.fromCharCode(i);e=document.createTextNode(e),c.parentNode.replaceChild(e,c)}}}catch(u){}}();/* ]]&gt; */&lt;/script&gt; \nFormat settings, CABAC : Yes \nFormat settings, ReFrames : 2 frames \nCodec ID : V_MPEG4/ISO/AVC \nDuration : 2h 14mn \nBit rate : 1 585 Kbps \nWidth : 720 pixels \nHeight : 306 pixels \nDisplay aspect ratio : 2.35:1 \nFrame rate mode : Constant \nFrame rate : 23.976 fps \nColor space : YUV \nChroma subsampling : 4:2:0 \nBit depth : 8 bits \nScan type : Progressive \nBits/(Pixel*Frame) : 0.300 \nStream size : 1.49 GiB (76%) \nWriting library : x264 core \nDefault : Yes \nForced : No \nColor primaries : BT.601 NTSC \nTransfer characteristics : BT.709 \nMatrix coefficients : BT.601 \n\nAudio \nID : 2 \nFormat : AC-3 \nFormat/Info : Audio Coding 3 \nMode extension : CM (complete main) \nFormat settings, Endianness : Big \nCodec ID : A_AC3 \nDuration : 2h 14mn \nBit rate mode : Constant \nBit rate : 448 Kbps \nChannel(s) : 6 channels \nChannel positions : Front: L C R, Side: L R, LFE \nSampling rate : 48.0 KHz \nBit depth : 16 bits \nCompression mode : Lossy \nStream size : 432 MiB (22%) \nDefault : Yes \nForced : No \n\n","torrent":{"xt":"urn:btih:3eefd0f411bc2303386239f921bea803b5f0e380","amp;dn":"Love.Actually.DVDRip.x264.AC3-UnKn0wn","amp;tr":["udp%3A%2F%2Ftracker.openbittorrent.com%3A80","udp%3A%2F%2Fopen.demonii.com%3A1337","udp%3A%2F%2Ftracker.coppersurfer.tk%3A6969","udp%3A%2F%2Fexodus.desync.com%3A6969"],"infoHash":"3eefd0f411bc2303386239f921bea803b5f0e380","infoHashBuffer":{"type":"Buffer","data":[62,239,208,244,17,188,35,3,56,98,57,249,33,190,168,3,181,240,227,128]},"announce":[],"urlList":[]}}